<svg id="Group_12678" data-name="Group 12678" xmlns="http://www.w3.org/2000/svg" width="41.045" height="41.045" viewBox="0 0 41.045 41.045">
  <ellipse id="Ellipse_93" data-name="Ellipse 93" cx="20.523" cy="20.523" rx="20.523" ry="20.523" transform="translate(0 0)" fill="#454545"/>
  <path id="Path_42459" data-name="Path 42459" d="M4154.284,519.349q.15-.985.3-1.971.175-1.143.351-2.287c.015-.093.012-.095-.086-.1-.034,0-.068,0-.1,0h-4.038c-.048,0-.072-.021-.07-.07,0-.024,0-.049,0-.073v-2.827a2.865,2.865,0,0,1,.092-.72,2.009,2.009,0,0,1,1.448-1.512,3.266,3.266,0,0,1,.905-.131c.622-.007,1.244,0,1.866,0,.034,0,.068,0,.1,0,.053,0,.084-.014.08-.073a.724.724,0,0,1,0-.073v-3.541c0-.142,0-.141-.139-.162-.408-.06-.817-.114-1.228-.156a18.056,18.056,0,0,0-2.457-.115,6.7,6.7,0,0,0-1.8.3,4.939,4.939,0,0,0-3.227,2.937,7,7,0,0,0-.5,2.644c-.009,1.141,0,2.283,0,3.424,0,.168.016.156-.158.156h-3.659c-.125,0-.128,0-.128.114q0,2.135,0,4.269v.015c0,.1,0,.1.11.1.034,0,.068,0,.1,0h3.528c.039,0,.078,0,.116,0,.073-.007.1.028.089.094a.58.58,0,0,0,0,.058c0,3.516,0,10.7,0,10.7h4.866s0-7.539,0-10.668c0-.2-.026-.181.177-.181h3.294C4154.264,519.494,4154.263,519.493,4154.284,519.349Z" transform="translate(-4128.383 -496.928)" fill="#fff"/>
</svg>
