<svg id="Group_12679" data-name="Group 12679" xmlns="http://www.w3.org/2000/svg" width="41.045" height="41.045" viewBox="0 0 41.045 41.045">
  <ellipse id="Ellipse_94" data-name="Ellipse 94" cx="20.523" cy="20.523" rx="20.523" ry="20.523" transform="translate(0 0)" fill="#454545"/>
  <path id="Path_42460" data-name="Path 42460" d="M4356.042,514.279h.813a1.964,1.964,0,0,0,.407.065,5.026,5.026,0,0,1,2.827,1.466.163.163,0,0,0,.172.05,10.174,10.174,0,0,0,2.967-1.124c.036-.02.072-.037.139-.071a5.152,5.152,0,0,1-2.186,2.768c.078,0,.117,0,.154-.008a11.785,11.785,0,0,0,1.22-.246,12.58,12.58,0,0,0,1.437-.493l.015.014c-.022.038-.041.077-.065.113a10.131,10.131,0,0,1-2.271,2.349.306.306,0,0,0-.139.292,12.937,12.937,0,0,1-.11,2.292,14.9,14.9,0,0,1-2.049,5.78,13.683,13.683,0,0,1-6.279,5.574,14.6,14.6,0,0,1-8.028,1.048,13.925,13.925,0,0,1-5.173-1.825c-.145-.085-.288-.175-.432-.263a10.227,10.227,0,0,0,7.4-2.1,5.147,5.147,0,0,1-2.888-1.019,5.026,5.026,0,0,1-1.792-2.5l.576.065a3.531,3.531,0,0,0,.551.011c.188-.009.375-.028.562-.052a2.74,2.74,0,0,0,.56-.121c-.051-.015-.079-.026-.108-.033a5.058,5.058,0,0,1-3.914-4.85c0-.129.03-.122.126-.071a4.9,4.9,0,0,0,1.655.524,1.454,1.454,0,0,0,.47.024,5.055,5.055,0,0,1-1.522-6.716c.031.034.061.065.088.1a14.371,14.371,0,0,0,10.172,5.161c.127.008.149-.021.124-.144a4.672,4.672,0,0,1,.089-2.362,4.979,4.979,0,0,1,3.912-3.6A3.738,3.738,0,0,0,4356.042,514.279Z" transform="translate(-4330.603 -503.285)" fill="#fff"/>
</svg>
